<svg width="25" height="20" viewBox="0 0 25 20" fill="none" xmlns="http://www.w3.org/2000/svg">
<path d="M12.5537 1.6665C18.2385 1.6665 22.8522 5.39984 22.8522 9.99984C22.8522 14.6082 18.2385 18.3332 12.5537 18.3332C6.85858 18.3332 2.25513 14.6082 2.25513 9.99984C2.25513 5.39984 6.85858 1.6665 12.5537 1.6665ZM16.5186 7.25817C16.6319 6.9665 16.3024 6.6915 15.9419 6.78317L10.669 8.1165C10.4528 8.17484 10.2777 8.30817 10.2159 8.48317L8.56814 12.7582C8.45486 13.0415 8.79471 13.3165 9.14486 13.2248L14.3971 11.8915C14.6134 11.8415 14.7885 11.6998 14.8503 11.5248L16.5186 7.25817Z" fill="#1D4ED8"/>
</svg>
