<svg width="9" height="9" viewBox="0 0 9 9" fill="none" xmlns="http://www.w3.org/2000/svg">
<g clip-path="url(#clip0_1_2223)">
<path d="M4.49991 7.909C6.3827 7.909 7.909 6.3827 7.909 4.49991C7.909 2.61712 6.3827 1.09082 4.49991 1.09082C2.61712 1.09082 1.09082 2.61712 1.09082 4.49991C1.09082 6.3827 2.61712 7.909 4.49991 7.909Z" stroke="black" stroke-width="0.511364" stroke-linecap="round" stroke-linejoin="round"/>
<path d="M1.26123 4.67041L3.13623 5.35223L2.79532 6.54541L3.13623 7.56814" stroke="black" stroke-width="0.511364" stroke-linecap="round" stroke-linejoin="round"/>
<path d="M6.20486 7.39768L6.0344 6.54541L5.18213 6.2045V5.01132L6.20486 4.67041L7.73895 4.84086" stroke="black" stroke-width="0.511364" stroke-linecap="round" stroke-linejoin="round"/>
<path d="M6.88659 2.28418L6.71613 2.79554L5.52295 2.966V3.98873L6.37522 3.64782H7.05704L7.73886 3.98873" stroke="black" stroke-width="0.511364" stroke-linecap="round" stroke-linejoin="round"/>
<path d="M1.26123 3.98895L2.1135 3.30713L2.96578 3.13667L3.64759 2.11395L3.30669 1.43213" stroke="black" stroke-width="0.511364" stroke-linecap="round" stroke-linejoin="round"/>
</g>
<defs>
<clipPath id="clip0_1_2223">
<rect width="8.18182" height="8.18182" fill="white" transform="translate(0.40918 0.40918)"/>
</clipPath>
</defs>
</svg>
