<svg width="31" height="31" viewBox="0 0 31 31" fill="none" xmlns="http://www.w3.org/2000/svg">
<path d="M13.2453 5.96418V11.8513C13.2456 11.9799 13.213 12.1065 13.1508 12.2191C13.0886 12.3316 12.9987 12.4265 12.8896 12.4946L3.50953 18.3565C3.40082 18.4245 3.31115 18.5189 3.24893 18.631C3.18671 18.7431 3.15398 18.8692 3.15381 18.9974V20.1326C3.1538 20.2477 3.18004 20.3613 3.23051 20.4647C3.28099 20.5681 3.35439 20.6587 3.44512 20.7294C3.53585 20.8002 3.64152 20.8494 3.75411 20.8732C3.86669 20.897 3.98323 20.8948 4.09484 20.8668L12.3043 18.8132C12.4159 18.7852 12.5324 18.783 12.645 18.8068C12.7576 18.8306 12.8633 18.8798 12.954 18.9506C13.0447 19.0213 13.1181 19.1119 13.1686 19.2153C13.2191 19.3187 13.2453 19.4323 13.2453 19.5473V23.2812C13.2452 23.389 13.2221 23.4955 13.1775 23.5936C13.1329 23.6917 13.0678 23.7792 12.9867 23.8501L10.262 26.2342C9.68427 26.7413 10.1397 27.6861 10.8953 27.5486L15.0025 26.8031C15.0917 26.787 15.1832 26.787 15.2724 26.8031L19.3797 27.5486C20.1353 27.6874 20.5907 26.7413 20.0129 26.2355L17.2882 23.8514C17.2069 23.7803 17.1418 23.6926 17.0972 23.5943C17.0526 23.4959 17.0296 23.3892 17.0296 23.2812V19.5473C17.0297 19.4324 17.0559 19.319 17.1063 19.2157C17.1567 19.1124 17.23 19.0219 17.3205 18.9512C17.4111 18.8804 17.5166 18.8312 17.629 18.8073C17.7415 18.7834 17.8579 18.7854 17.9694 18.8132L26.1814 20.8668C26.2929 20.8946 26.4093 20.8966 26.5217 20.8727C26.6341 20.8488 26.7396 20.7996 26.8302 20.7288C26.9208 20.6581 26.9941 20.5676 27.0445 20.4643C27.0949 20.361 27.1211 20.2476 27.1211 20.1326V18.9974C27.121 18.8692 27.0882 18.7431 27.026 18.631C26.9638 18.5189 26.8741 18.4245 26.7654 18.3565L17.3854 12.4934C17.2765 12.4253 17.1867 12.3307 17.1244 12.2184C17.0622 12.106 17.0296 11.9797 17.0296 11.8513V5.96418C17.0296 5.46235 16.8303 4.98107 16.4754 4.62622C16.1206 4.27137 15.6393 4.07202 15.1375 4.07202C14.6356 4.07202 14.1544 4.27137 13.7995 4.62622C13.4447 4.98107 13.2453 5.46235 13.2453 5.96418Z" stroke="black" stroke-width="1.89216" stroke-linecap="round" stroke-linejoin="round"/>
</svg>
