<svg width="9" height="9" viewBox="0 0 9 9" fill="none" xmlns="http://www.w3.org/2000/svg">
<g clip-path="url(#clip0_1_2235)">
<path d="M8.25 1.43556C8.25 1.43556 7.56208 1.84196 7.17955 1.95715C6.97423 1.72107 6.70136 1.55375 6.39785 1.4778C6.09434 1.40186 5.77483 1.42096 5.48253 1.53253C5.19023 1.64409 4.93924 1.84274 4.76352 2.1016C4.58779 2.36045 4.49581 2.66704 4.5 2.97988V3.32078C3.9009 3.33632 3.30725 3.20345 2.77193 2.934C2.23662 2.66456 1.77624 2.26691 1.43182 1.77647C1.43182 1.77647 0.0681818 4.84465 3.13636 6.20828C2.43427 6.68486 1.59789 6.92383 0.75 6.8901C3.81818 8.59465 7.56818 6.8901 7.56818 2.96965C7.56787 2.87469 7.55874 2.77996 7.54091 2.68669C7.88884 2.34357 8.25 1.43556 8.25 1.43556Z" stroke="black" stroke-width="0.511364" stroke-linecap="round" stroke-linejoin="round"/>
</g>
<defs>
<clipPath id="clip0_1_2235">
<rect width="8.18182" height="8.18182" fill="white" transform="translate(0.40918 0.40918)"/>
</clipPath>
</defs>
</svg>
