<svg width="25" height="24" viewBox="0 0 25 24" fill="none" xmlns="http://www.w3.org/2000/svg">
<path d="M11 4.5V9.167C11.0002 9.26897 10.9744 9.3693 10.9251 9.45854C10.8757 9.54777 10.8045 9.62296 10.718 9.677L3.282 14.324C3.19582 14.3779 3.12473 14.4527 3.07541 14.5416C3.02608 14.6304 3.00014 14.7304 3 14.832V15.732C2.99999 15.8232 3.02079 15.9132 3.06081 15.9952C3.10082 16.0772 3.15901 16.149 3.23093 16.2051C3.30286 16.2612 3.38663 16.3002 3.47589 16.3191C3.56514 16.3379 3.65752 16.3362 3.746 16.314L10.254 14.686C10.3425 14.6638 10.4349 14.6621 10.5241 14.6809C10.6134 14.6998 10.6971 14.7388 10.7691 14.7949C10.841 14.851 10.8992 14.9228 10.9392 15.0048C10.9792 15.0868 11 15.1768 11 15.268V18.228C10.9999 18.3134 10.9816 18.3979 10.9462 18.4756C10.9109 18.5534 10.8593 18.6228 10.795 18.679L8.635 20.569C8.177 20.971 8.538 21.72 9.137 21.611L12.393 21.02C12.4638 21.0072 12.5362 21.0072 12.607 21.02L15.863 21.611C16.462 21.721 16.823 20.971 16.365 20.57L14.205 18.68C14.1406 18.6236 14.0889 18.5542 14.0536 18.4762C14.0182 18.3982 13.9999 18.3136 14 18.228V15.268C14 15.1769 14.0208 15.087 14.0608 15.0051C14.1007 14.9232 14.1588 14.8515 14.2306 14.7954C14.3024 14.7393 14.3861 14.7003 14.4752 14.6813C14.5643 14.6624 14.6566 14.664 14.745 14.686L21.255 16.314C21.3434 16.336 21.4357 16.3376 21.5248 16.3187C21.6139 16.2997 21.6976 16.2607 21.7694 16.2046C21.8412 16.1485 21.8993 16.0768 21.9392 15.9949C21.9792 15.913 22 15.8231 22 15.732V14.832C21.9999 14.7304 21.9739 14.6304 21.9246 14.5416C21.8753 14.4527 21.8042 14.3779 21.718 14.324L14.282 9.676C14.1957 9.62205 14.1245 9.54702 14.0752 9.45797C14.0258 9.36893 14 9.2688 14 9.167V4.5C14 4.10218 13.842 3.72064 13.5607 3.43934C13.2794 3.15804 12.8978 3 12.5 3C12.1022 3 11.7206 3.15804 11.4393 3.43934C11.158 3.72064 11 4.10218 11 4.5Z" stroke="white" stroke-width="1.5" stroke-linecap="round" stroke-linejoin="round"/>
</svg>
