<svg width="13" height="13" viewBox="0 0 13 13" fill="none" xmlns="http://www.w3.org/2000/svg">
<path d="M9.45566 12.078H1.60252C1.39219 12.078 1.22168 11.9075 1.22168 11.6971V5.47677C1.22168 5.26644 1.39219 5.09593 1.60252 5.09593H3.35921C3.80512 5.09593 4.21834 4.86197 4.44776 4.4796L6.16816 1.61228C6.53937 0.993588 7.41372 0.934777 7.86444 1.49818C8.0769 1.76375 8.14538 2.11672 8.04766 2.44247L7.3987 4.60566C7.3254 4.85001 7.50837 5.09593 7.76348 5.09593H10.6674C11.5045 5.09593 12.1124 5.89185 11.8922 6.69941L10.6804 11.1425C10.5298 11.6948 10.0281 12.078 9.45566 12.078Z" stroke="black" stroke-width="0.952096" stroke-linecap="round"/>
</svg>
